<svg version="1" xmlns="http://www.w3.org/2000/svg" width="360" height="360" viewBox="0 0 270.000000 270.000000"><path d="M0 135v135h270V0H0v135zM178.4 27.6c3.6 3.7 3.6 9.1 0 12.8-2.3 2.3-3.5 2.6-9 2.6H163v56.9l36.7 57.8c20.1 31.8 37.5 59.9 38.5 62.6 2.4 6.4 2.3 10.2-.7 15.2-3.1 5.3-7.4 7.5-17.3 8.4-4.3.5-44.8.8-90.2.7-65.6-.1-83.3-.4-86.3-1.4-5.7-2-10.4-6.9-11.8-12.2-1.1-4-.9-5.1 1.3-10.5 1.3-3.3 15.9-27.1 32.3-53s32.7-51.5 36.2-57l6.3-10V43h-6.1c-5.4 0-6.4-.3-9-2.9-2-2-2.9-3.9-2.9-6.1 0-2.2.9-4.1 2.9-6.1l2.9-2.9h79.9l2.7 2.6z"/><path d="M127 73.8v30.9l-19.6 30.9c-10.8 17-20 31.3-20.5 31.9-3.3 3.4-1.9 3.5 48.6 3.5 36.8 0 49.5-.3 49.5-1.2 0-1-14.5-24.3-33.7-54.1l-6.3-9.8V43h-18v30.8z"/></svg>